<?xml version="1.0" standalone="no"?>
<!DOCTYPE svg PUBLIC "-//W3C//DTD SVG 20010904//EN"
 "http://www.w3.org/TR/2001/REC-SVG-20010904/DTD/svg10.dtd">
<svg version="1.0" xmlns="http://www.w3.org/2000/svg"
 width="500.000000pt" height="360.000000pt" viewBox="0 0 500.000000 360.000000"
 preserveAspectRatio="xMidYMid meet">

<g transform="translate(0.000000,360.000000) scale(0.100000,-0.100000)"
fill="#000000" stroke="none">
<path d="M1267 3413 c-4 -3 -7 -572 -7 -1263 0 -1387 -3 -1324 62 -1387 35
-34 67 -50 746 -369 l432 -204 572 270 c402 189 581 279 605 302 66 64 63 -1
61 1393 l-3 1260 -1231 3 c-677 1 -1234 -1 -1237 -5z m1253 -198 l13 -45 53 0
c30 0 54 -4 54 -10 0 -5 -4 -10 -8 -10 -4 0 -22 -12 -40 -27 l-33 -28 16 -44
c8 -24 13 -46 11 -49 -3 -2 -20 8 -39 22 -42 32 -50 32 -91 1 -18 -14 -36 -25
-39 -25 -3 0 1 21 9 48 l14 47 -32 28 c-18 15 -36 27 -40 27 -4 0 -8 5 -8 10
0 6 24 10 54 10 l54 0 11 45 c6 25 15 45 20 45 5 0 14 -20 21 -45z m-443 -205
c23 -11 44 -28 48 -39 6 -19 -29 -111 -42 -111 -4 0 -16 12 -26 25 -14 19 -15
29 -7 45 9 17 7 20 -15 26 -21 5 -25 12 -25 40 0 40 10 42 67 14z m-280 -15
c15 -14 34 -29 41 -35 20 -18 14 -28 -24 -40 -30 -10 -38 -9 -55 6 -18 16 -20
16 -38 0 -22 -20 -81 -14 -81 8 0 18 89 86 111 86 10 0 31 -11 46 -25z m1331
-38 c11 -23 23 -61 27 -84 4 -24 10 -43 14 -43 20 0 149 -146 193 -219 12 -20
25 -38 28 -41 11 -9 60 -127 82 -198 13 -40 26 -72 30 -72 4 0 11 12 14 28 12
47 41 96 79 132 35 33 37 33 30 10 -13 -43 -33 -76 -80 -131 -42 -48 -46 -58
-40 -89 18 -101 20 -228 5 -332 -15 -104 -16 -109 -34 -151 -8 -21 -15 -40
-15 -42 -1 -10 -31 -80 -41 -95 -5 -8 -17 -28 -26 -43 -70 -127 -254 -290
-419 -372 -22 -11 -43 -24 -46 -28 -3 -5 -10 -8 -15 -8 -19 2 -74 -21 -69 -28
2 -5 22 -11 43 -15 34 -5 158 -83 149 -93 -11 -10 -110 33 -156 68 l-54 41
-86 -21 c-62 -15 -102 -19 -144 -14 -32 3 -56 7 -54 9 1 2 48 10 103 18 56 8
130 25 165 36 87 30 234 103 293 146 47 35 48 37 41 77 -26 155 -22 197 11
112 12 -32 15 -60 11 -97 l-7 -52 32 31 31 32 -23 84 c-27 101 -22 130 10 67
16 -30 23 -61 23 -95 l-1 -49 28 31 29 32 -35 86 c-42 102 -40 130 4 61 24
-37 32 -62 32 -95 l1 -46 24 30 c14 17 25 35 25 41 0 6 6 17 14 23 8 6 28 41
45 77 l31 65 -60 70 c-68 79 -77 105 -22 63 48 -37 71 -65 72 -86 0 -32 19
-29 29 4 9 32 7 35 -61 101 -39 38 -68 71 -65 74 4 3 26 -6 50 -20 46 -28 77
-65 77 -94 0 -11 3 -13 9 -8 31 32 36 349 7 460 -23 87 -75 209 -120 279 l-34
54 -49 -8 c-126 -21 -175 -18 -118 8 41 19 98 24 128 13 33 -13 34 -7 3 34
l-25 32 -73 -19 c-40 -10 -84 -17 -98 -15 -22 3 -19 6 24 26 36 17 60 22 92
18 24 -2 44 -3 44 0 0 2 -21 26 -46 53 l-45 49 -92 -5 c-91 -5 -92 -5 -62 12
17 10 49 17 72 17 33 0 40 3 32 13 -5 6 -24 15 -42 18 -36 7 -162 64 -156 71
15 15 152 -39 224 -88 l30 -21 -23 26 c-22 24 -52 103 -52 136 0 24 26 -3 48
-51z m90 -74 c2 -35 2 -63 -1 -63 -18 0 -37 65 -37 122 l1 63 16 -29 c8 -17
18 -58 21 -93z m86 55 c3 -13 6 -35 6 -50 0 -41 -21 -129 -29 -123 -15 9 -20
76 -9 135 11 63 22 75 32 38z m-649 -73 c39 -8 79 -19 90 -24 11 -5 40 -16 63
-25 74 -28 153 -85 237 -170 74 -76 128 -161 177 -281 21 -54 40 -169 40 -250
0 -83 -24 -226 -42 -250 -4 -5 -10 -21 -13 -35 -13 -54 -109 -195 -178 -262
-93 -91 -144 -123 -284 -178 -65 -26 -126 -34 -245 -34 -141 -1 -179 7 -315
62 -69 28 -141 78 -212 149 -84 83 -109 118 -153 208 -46 95 -48 100 -66 180
-27 119 -16 312 24 410 24 58 79 164 101 195 79 108 215 219 313 256 23 9 52
20 63 25 79 37 281 49 400 24z m717 -145 l-19 -55 -7 37 c-7 37 4 105 26 154
12 28 13 28 16 -26 2 -35 -4 -75 -16 -110z m-218 74 c30 -12 16 -22 -47 -33
-35 -6 -70 -11 -77 -11 -23 0 3 20 46 35 45 16 56 17 78 9z m290 -133 c-9 -25
-24 -55 -31 -66 -25 -34 -10 80 18 145 l24 55 3 -44 c2 -25 -4 -64 -14 -90z
m72 -36 c-16 -52 -52 -125 -63 -125 -16 0 9 96 38 146 38 67 48 59 25 -21z
m40 -122 c-14 -26 -34 -59 -45 -73 -20 -25 -21 -25 -21 -3 0 32 17 72 53 126
29 43 32 45 35 23 2 -13 -8 -46 -22 -73z m-239 76 c42 -16 11 -29 -68 -29 -78
0 -95 11 -42 27 49 15 75 15 110 2z m-1553 -42 c36 -31 38 -35 32 -73 -11 -64
-21 -73 -50 -45 -18 17 -24 31 -20 47 4 16 0 24 -15 29 -16 5 -21 15 -21 41 0
44 22 45 74 1z m-281 -15 c38 -6 43 -20 16 -48 -17 -18 -30 -23 -49 -19 -21 5
-29 1 -37 -17 -13 -28 -72 -53 -79 -34 -8 20 41 108 67 122 13 7 31 11 39 7 8
-3 27 -8 43 -11z m1888 -32 l24 -21 -40 5 c-22 3 -67 8 -99 11 -76 9 -56 25
30 25 48 0 67 -5 85 -20z m18 -71 c18 -11 31 -22 28 -25 -5 -5 -112 11 -149
22 -36 11 -16 24 35 24 35 0 63 -7 86 -21z m271 -51 c-1 -7 -7 -24 -14 -36
-14 -27 -107 -124 -113 -119 -9 10 32 83 69 123 41 45 58 54 58 32z m-267 -21
c34 -15 68 -47 49 -47 -16 0 -172 50 -172 55 0 11 93 4 123 -8z m3 -78 c33
-10 87 -59 65 -59 -21 0 -161 61 -161 71 0 9 44 4 96 -12z m280 -27 c-16 -31
-110 -122 -126 -122 -23 0 24 67 83 118 46 39 62 41 43 4z m-300 -47 c46 -13
78 -38 98 -73 8 -14 -115 45 -149 72 -25 20 -12 20 51 1z m324 -41 c0 -27
-133 -145 -147 -131 -11 12 36 70 83 103 48 33 64 40 64 28z m-305 -48 c45
-20 94 -70 82 -82 -5 -5 -157 93 -157 101 0 11 27 4 75 -19z m-1747 -20 c36
-5 53 -29 59 -80 3 -34 1 -46 -9 -46 -23 0 -58 30 -58 51 0 13 -7 19 -23 19
-16 0 -28 9 -35 25 -18 40 -15 48 16 41 15 -3 38 -8 50 -10z m1755 -70 c35
-18 75 -71 64 -82 -5 -5 -133 91 -143 107 -9 15 29 3 79 -25z m286 3 c-27 -34
-136 -106 -146 -95 -11 10 58 76 107 101 60 32 67 31 39 -6z m-2273 -91 c-3
-13 -6 -31 -6 -40 0 -10 -11 -20 -26 -24 -23 -6 -25 -10 -20 -43 5 -27 1 -42
-14 -61 -19 -24 -21 -24 -34 -7 -8 10 -17 43 -21 73 -7 62 10 104 45 104 10 0
22 5 25 10 3 6 18 10 32 10 21 0 24 -3 19 -22z m2260 -27 c-27 -28 -143 -88
-152 -78 -17 16 118 106 160 107 18 0 17 -3 -8 -29z m-322 -132 c27 -32 41
-69 34 -91 -4 -11 -98 119 -98 136 0 13 38 -14 64 -45z m326 44 c0 -24 -122
-82 -170 -82 l-25 0 30 25 c17 13 57 33 90 44 69 22 75 23 75 13z m-336 -175
c12 -60 -10 -48 -47 25 -20 41 -37 78 -37 83 1 21 78 -78 84 -108z m289 47
c-30 -21 -88 -41 -143 -48 l-45 -7 30 25 c31 26 85 42 145 44 34 1 34 1 13
-14z m-1780 -34 c34 -37 34 -57 0 -64 -21 -4 -33 -1 -45 14 -16 19 -19 19 -39
5 -19 -13 -25 -13 -50 0 -36 18 -29 37 19 57 57 23 84 20 115 -12z m1747 -60
c0 -24 -181 -64 -194 -43 -7 11 61 39 109 45 58 8 85 7 85 -2z m-498 -175 c0
-23 -3 -52 -6 -64 -15 -45 -26 -8 -25 81 1 89 1 91 15 59 8 -19 15 -53 16 -76z
m419 77 l33 -6 -34 -13 c-42 -15 -180 -18 -180 -4 0 22 113 37 181 23z m-497
-64 c10 -51 6 -102 -9 -129 -13 -23 -14 -18 -15 68 0 91 12 121 24 61z m-1356
-31 c10 -27 9 -35 -5 -50 -15 -17 -14 -19 9 -37 19 -16 24 -27 20 -50 -6 -43
-27 -39 -79 14 -47 50 -53 76 -23 102 11 10 20 23 20 29 0 12 15 22 35 23 6 1
16 -13 23 -31z m532 -13 c0 -7 -9 -20 -21 -31 -17 -15 -23 -16 -41 -5 -22 14
-21 14 -36 -15 -8 -16 -18 -20 -41 -16 -17 2 -31 9 -31 14 0 16 62 87 79 90
23 5 91 -23 91 -37z m753 -14 c3 -27 3 -60 -1 -72 -10 -33 -29 -65 -36 -58 -8
8 15 179 24 179 4 0 10 -22 13 -49z m465 38 c47 -8 61 -14 53 -22 -14 -14
-146 -13 -181 1 l-25 10 35 10 c47 14 44 14 118 1z m-540 -94 c-4 -50 -33
-114 -45 -101 -5 5 11 105 23 149 11 37 26 3 22 -48z m497 5 l30 -13 -35 -8
c-19 -4 -46 -6 -60 -3 -72 14 -109 28 -103 36 8 13 128 4 168 -12z m-100 -71
l50 -23 -38 -4 c-45 -4 -170 35 -161 50 10 16 92 3 149 -23z m-107 -54 c28
-13 52 -28 52 -33 0 -16 -95 5 -146 32 l-49 25 45 0 c27 1 66 -9 98 -24z
m-147 -30 c47 -17 109 -55 109 -68 0 -11 -47 2 -112 30 -100 44 -97 73 3 38z
m-1346 -47 c86 -17 141 -35 278 -91 26 -11 27 -14 27 -85 l0 -73 44 -19 c139
-59 330 -100 471 -100 112 0 254 23 371 61 158 50 154 47 154 132 0 70 1 73
28 84 175 72 284 102 439 117 l62 7 -35 -81 c-20 -45 -34 -83 -32 -85 2 -1 30
-16 62 -32 l60 -30 -101 -18 c-127 -22 -134 -27 -105 -58 12 -13 22 -28 22
-33 0 -5 -19 -28 -42 -51 -209 -199 -494 -295 -878 -296 -306 0 -563 66 -751
194 -68 46 -169 137 -169 152 0 6 10 21 22 34 29 31 22 36 -105 58 l-101 18
60 30 c32 16 60 31 62 32 2 2 -10 35 -27 75 -17 40 -31 76 -31 81 0 12 87 2
215 -23z m780 -17 c28 -6 26 -7 -20 -14 -61 -9 -119 -37 -165 -79 -30 -27 -43
-32 -87 -32 -29 -1 -53 2 -53 6 0 16 97 89 144 107 51 20 124 25 181 12z"/>
<path d="M2427 2863 c-35 -4 -38 -7 -35 -31 2 -15 9 -27 16 -26 6 1 27 2 45 3
29 1 33 4 31 28 -1 30 -3 31 -57 26z"/>
<path d="M2519 2869 c0 -2 -2 -16 -3 -30 -1 -24 3 -28 38 -32 49 -7 56 -3 56
29 0 18 -5 24 -22 24 -13 0 -33 3 -45 6 -13 4 -23 5 -24 3z"/>
<path d="M2294 2839 c-27 -8 -31 -13 -26 -35 4 -24 7 -26 45 -20 52 9 55 11
49 41 -5 27 -16 29 -68 14z"/>
<path d="M2640 2825 c0 -18 7 -28 26 -35 42 -16 61 -12 66 15 5 22 0 26 -31
35 -53 15 -61 13 -61 -15z"/>
<path d="M2187 2799 c-32 -17 -37 -24 -31 -42 9 -30 7 -30 53 -11 29 11 40 21
37 31 -3 8 -6 21 -6 29 0 18 -7 17 -53 -7z"/>
<path d="M2759 2794 c-5 -15 -8 -28 -7 -29 6 -5 81 -35 82 -33 1 2 6 12 13 24
10 19 7 23 -33 42 l-45 22 -10 -26z"/>
<path d="M2445 2793 c-248 -18 -466 -173 -564 -400 -51 -120 -62 -169 -62
-278 0 -101 14 -172 47 -240 8 -16 12 -21 9 -10 -24 77 -45 175 -45 212 l0 43
110 0 c61 0 110 3 110 8 0 4 -5 23 -10 42 -19 62 -20 171 -3 260 9 47 19 90
23 95 4 6 11 24 15 40 7 28 9 25 21 -33 17 -80 56 -131 126 -166 29 -14 57
-26 64 -26 7 0 23 -15 35 -32 27 -39 38 -48 61 -48 15 0 48 50 48 73 0 6 7 18
16 28 22 24 11 37 -26 31 -18 -2 -30 0 -30 7 0 6 9 11 20 11 11 0 20 5 20 11
0 7 -12 9 -35 5 -39 -8 -48 7 -15 24 11 6 20 17 20 24 0 14 50 26 112 26 36 0
36 0 43 -52 4 -29 10 -57 13 -63 3 -5 7 -18 8 -30 1 -11 10 -37 18 -57 22 -52
43 -50 83 8 13 18 37 35 60 42 93 28 157 103 169 196 7 46 8 48 17 26 5 -14
13 -34 18 -45 34 -83 45 -271 20 -355 -6 -19 -11 -38 -11 -42 0 -5 50 -8 111
-8 l112 0 -6 -70 c-3 -38 -19 -107 -35 -153 -82 -240 -287 -408 -542 -446 -51
-8 -52 -9 -15 -10 75 -2 216 48 304 107 140 96 228 223 286 411 22 72 22 240
0 312 -59 190 -146 315 -288 412 -118 80 -280 122 -432 110z"/>
<path d="M2072 2737 c-34 -23 -38 -43 -11 -60 12 -7 24 -4 47 13 27 20 29 25
20 46 -13 29 -14 29 -56 1z"/>
<path d="M2871 2739 c-12 -20 -10 -24 16 -45 15 -13 33 -23 39 -24 13 0 34 21
34 35 0 8 -62 55 -72 55 -2 0 -9 -10 -17 -21z"/>
<path d="M1972 2647 l-32 -33 20 -19 c20 -19 21 -18 51 12 28 27 30 32 18 52
-18 27 -19 27 -57 -12z"/>
<path d="M2971 2659 c-12 -20 -10 -25 18 -52 30 -30 31 -31 51 -12 l20 19 -32
33 c-38 39 -39 39 -57 12z"/>
<path d="M1893 2555 c-28 -42 -28 -47 -3 -62 17 -11 22 -9 44 24 25 36 25 37
6 55 -10 10 -20 18 -22 18 -2 0 -13 -16 -25 -35z"/>
<path d="M3058 2571 c-17 -16 -16 -19 8 -54 22 -33 27 -35 44 -24 25 15 25 23
-2 64 -26 38 -27 38 -50 14z"/>
<path d="M1824 2439 c-18 -40 -18 -42 1 -55 27 -20 30 -18 48 28 16 38 15 42
-1 54 -25 19 -27 18 -48 -27z"/>
<path d="M3127 2466 c-17 -13 -17 -15 0 -52 9 -22 18 -40 18 -41 1 -1 11 0 23
4 26 6 27 21 5 68 -19 39 -21 40 -46 21z"/>
<path d="M1780 2327 c-12 -37 -13 -67 -1 -67 5 0 16 -3 24 -6 10 -4 17 7 26
40 14 57 15 53 -14 58 -20 4 -26 0 -35 -25z"/>
<path d="M3183 2352 c-27 -4 -26 -1 -12 -58 9 -33 16 -44 26 -40 8 3 19 6 24
6 13 0 10 40 -4 70 -9 18 -18 24 -34 22z"/>
<path d="M2343 2243 c-9 -3 -13 -32 -13 -94 l0 -89 55 0 c55 0 55 0 55 -31 0
-22 9 -40 30 -59 26 -24 30 -35 30 -79 l0 -51 38 15 c73 31 131 111 132 183
l0 32 -55 0 c-42 0 -55 3 -55 15 0 8 9 15 20 15 13 0 20 7 20 20 0 11 7 20 15
20 24 0 29 29 10 50 -22 24 -43 25 -73 4 -20 -14 -33 -62 -13 -50 9 6 49 -20
41 -27 -3 -2 -22 -2 -42 1 l-38 4 0 64 0 64 -72 -1 c-40 0 -79 -3 -85 -6z m54
-108 c9 -24 -1 -27 -15 -5 -8 13 -8 20 -2 20 6 0 13 -7 17 -15z m132 -81 c-5
-6 -7 -18 -4 -25 4 -10 -3 -14 -25 -14 -20 0 -29 4 -26 12 3 7 1 15 -4 18 -6
4 -10 11 -10 16 0 6 5 7 10 4 6 -3 13 0 16 8 4 12 10 12 29 3 16 -7 20 -14 14
-22z m109 -57 c4 -17 -36 -92 -45 -84 -2 3 5 20 16 38 26 42 26 59 3 59 -19 0
-51 -29 -70 -65 -6 -11 -12 -15 -12 -8 0 7 14 28 31 48 34 38 71 44 77 12z
m-58 -99 c0 -5 -9 -8 -19 -8 -11 0 -22 3 -24 8 -3 4 6 7 19 7 13 0 24 -3 24
-7z"/>
<path d="M1756 2208 c-3 -13 -6 -36 -6 -51 0 -25 3 -28 28 -25 24 3 27 7 30
46 2 23 -1 42 -7 42 -5 0 -16 3 -24 6 -9 3 -17 -3 -21 -18z"/>
<path d="M3203 2223 c-14 -5 -17 -50 -7 -77 3 -9 17 -16 30 -16 20 0 24 5 24
28 0 61 -13 79 -47 65z"/>
<path d="M1754 2053 c7 -55 6 -54 34 -46 16 4 22 13 22 33 0 44 -10 60 -37 60
-25 0 -25 -2 -19 -47z"/>
<path d="M3196 2084 c-14 -36 -6 -72 16 -77 28 -8 29 -7 35 48 5 43 4 45 -20
45 -14 0 -28 -7 -31 -16z"/>
<path d="M1788 1973 c-21 -5 -23 -36 -5 -74 10 -23 16 -25 35 -18 16 6 22 14
18 26 -3 10 -8 30 -12 46 -3 15 -9 26 -13 26 -3 -1 -14 -3 -23 -6z"/>
<path d="M3172 1938 c-10 -37 -9 -45 5 -55 26 -20 31 -16 42 25 13 46 14 62 2
62 -5 0 -16 2 -24 6 -10 4 -17 -7 -25 -38z"/>
<path d="M1828 1853 c-22 -6 -23 -23 -1 -68 19 -39 21 -40 45 -21 16 12 17 16
1 54 -9 23 -19 41 -22 41 -3 -1 -14 -3 -23 -6z"/>
<path d="M3145 1852 c-4 -4 -13 -22 -21 -41 -13 -30 -12 -35 3 -47 10 -7 20
-14 24 -14 9 0 49 89 41 93 -20 11 -41 15 -47 9z"/>
<path d="M1880 1836 c0 -14 40 -85 52 -92 7 -4 -1 15 -16 42 -33 55 -36 60
-36 50z"/>
<path d="M1886 1735 c-21 -16 -17 -31 19 -79 13 -17 14 -17 34 1 l21 19 -26
37 c-13 20 -26 37 -27 37 -1 0 -11 -7 -21 -15z"/>
<path d="M3066 1714 c-24 -36 -24 -36 -4 -56 11 -11 21 -18 22 -16 28 38 46
68 46 75 0 4 -9 14 -20 20 -17 11 -22 9 -44 -23z"/>
<path d="M1958 1704 c28 -41 106 -116 158 -153 77 -55 238 -112 306 -110 27 1
24 3 -15 9 -158 27 -276 88 -392 205 -44 44 -70 66 -57 49z"/>
<path d="M1957 1632 c-16 -17 -15 -20 18 -52 19 -18 36 -32 38 -29 1 2 9 12
16 22 12 16 11 21 -14 47 -34 35 -37 36 -58 12z"/>
<path d="M2985 1620 c-25 -26 -26 -31 -14 -47 7 -10 15 -20 16 -22 2 -3 19 11
38 29 33 32 34 35 18 52 -21 24 -24 23 -58 -12z"/>
<path d="M2051 1547 c-13 -19 -11 -24 20 -49 40 -34 41 -34 57 -7 15 24 8 35
-35 61 -28 16 -29 16 -42 -5z"/>
<path d="M2888 1539 c-24 -18 -26 -23 -16 -45 14 -30 16 -30 58 5 30 25 33 31
21 45 -17 21 -30 20 -63 -5z"/>
<path d="M2154 1476 c-10 -22 -8 -25 33 -45 l44 -21 9 26 c6 14 10 27 10 29 0
2 -77 35 -83 35 -1 0 -7 -11 -13 -24z"/>
<path d="M2790 1484 c-44 -19 -42 -17 -31 -48 l10 -26 44 21 c41 20 43 23 33
45 -13 28 -11 28 -56 8z"/>
<path d="M2268 1425 c-5 -22 0 -26 31 -35 52 -14 58 -13 63 15 5 22 0 26 -31
35 -52 14 -58 13 -63 -15z"/>
<path d="M2663 1440 c-16 -6 -23 -18 -23 -35 0 -28 8 -30 63 -14 28 7 37 15
33 26 -3 8 -6 19 -6 24 0 11 -38 11 -67 -1z"/>
<path d="M2483 1433 c9 -2 23 -2 30 0 6 3 -1 5 -18 5 -16 0 -22 -2 -12 -5z"/>
<path d="M2397 1424 c-4 -4 -7 -18 -7 -31 0 -21 4 -23 48 -23 44 0 47 2 47 25
0 18 -5 25 -20 25 -11 0 -29 3 -40 6 -11 3 -24 2 -28 -2z"/>
<path d="M2545 1421 c-23 -4 -30 -11 -30 -28 0 -13 4 -23 8 -23 90 -1 88 -1
85 27 -3 30 -15 34 -63 24z"/>
<path d="M1505 1085 c50 -116 48 -106 28 -121 -10 -7 -24 -14 -30 -14 -54 -1
85 -50 143 -50 7 0 37 27 66 60 l52 60 65 0 c40 0 61 4 56 9 -28 28 -288 91
-373 91 -22 0 -22 -1 -7 -35z"/>
<path d="M3368 1105 c-84 -14 -233 -58 -253 -76 -5 -5 17 -9 55 -9 l65 0 56
-62 57 -62 88 20 89 21 -35 18 c-19 9 -36 19 -38 20 -2 2 4 19 12 39 9 20 23
52 31 71 l15 35 -27 -1 c-16 -1 -67 -7 -115 -14z"/>
<path d="M1815 980 c8 -13 125 -93 130 -88 4 4 8 47 6 76 -1 21 -5 22 -72 22
-44 0 -68 -4 -64 -10z"/>
<path d="M3050 940 c0 -27 2 -50 6 -50 9 0 122 79 129 90 4 6 -20 10 -64 10
l-71 0 0 -50z"/>
<path d="M1686 901 c-46 -47 -76 -84 -71 -90 15 -25 109 -108 158 -140 178
-115 438 -180 722 -181 297 0 549 63 731 182 70 46 164 129 164 145 0 5 -36
44 -79 87 l-80 79 -56 -42 c-261 -197 -654 -263 -1001 -168 -133 37 -251 93
-338 161 -33 25 -62 46 -65 46 -4 0 -42 -36 -85 -79z m59 -10 c-5 -15 -1 -18
20 -13 30 5 34 -14 4 -23 -11 -4 -25 -20 -31 -36 -13 -39 -31 -38 -23 2 7 29
6 30 -15 19 -34 -18 -34 -5 0 34 35 39 55 47 45 17z m1555 -16 c33 -34 33 -35
14 -49 -12 -9 -30 -12 -49 -9 -30 6 -30 6 -12 -14 11 -12 14 -24 9 -27 -6 -3
-23 10 -39 30 l-28 36 -20 -23 -20 -22 28 7 c30 7 37 -7 11 -22 -12 -7 -13
-11 -5 -16 7 -4 19 -2 27 5 8 6 18 9 22 5 7 -8 -33 -46 -48 -46 -8 0 -63 80
-58 85 2 1 25 19 51 40 50 37 72 39 84 8 7 -19 22 -33 37 -33 6 0 -4 15 -22
33 -18 18 -32 36 -32 40 0 15 18 5 50 -28z m-1461 -45 c28 -24 32 -33 27 -57
-5 -22 -4 -25 4 -10 15 23 32 22 90 -8 41 -21 50 -30 50 -53 1 -25 1 -26 12
-7 6 11 12 21 13 22 1 2 24 -3 51 -11 27 -8 75 -20 107 -26 59 -12 75 -26 62
-57 -5 -10 -7 -28 -6 -40 3 -31 -17 -29 -25 2 -7 30 -24 33 -24 5 0 -11 -5
-20 -11 -20 -8 0 -10 14 -6 44 6 41 5 44 -18 49 -27 5 -34 -7 -10 -17 23 -8
18 -28 -5 -21 -14 5 -20 2 -20 -9 0 -9 9 -16 20 -16 11 0 20 -4 20 -10 0 -11
-30 -13 -54 -4 -12 5 -14 16 -9 50 7 56 -12 59 -28 4 -7 -22 -17 -40 -22 -40
-9 0 -5 38 8 73 5 11 2 17 -7 17 -8 0 -20 -16 -27 -36 -14 -38 -34 -41 -39 -5
-3 21 -4 22 -17 4 -21 -28 -28 -9 -11 31 14 34 14 36 -5 47 -25 13 -41 1 -16
-12 26 -15 21 -30 -8 -23 -29 7 -33 -3 -8 -22 25 -17 10 -28 -19 -13 -12 6
-24 13 -26 14 -2 2 4 18 13 37 l16 33 -21 -27 c-26 -34 -45 -37 -29 -5 12 22
12 22 -9 4 -21 -19 -40 -8 -26 16 5 8 2 8 -9 -2 -23 -18 -22 0 2 41 19 29 19
32 3 44 -9 7 -20 10 -25 7 -5 -3 0 -11 10 -18 23 -17 8 -33 -16 -18 -26 16
-35 4 -14 -19 9 -10 13 -21 10 -25 -8 -7 -47 25 -47 39 0 12 50 78 59 78 3 -1
21 -14 40 -30z m1296 -45 c0 -5 -10 -11 -22 -13 -13 -2 -23 -9 -23 -16 0 -17
35 -48 43 -39 11 10 8 25 -3 18 -5 -3 -10 0 -10 8 0 23 29 28 40 7 13 -24 13
-26 -6 -44 -21 -21 -40 -20 -64 4 -23 23 -26 60 -8 78 15 15 53 12 53 -3z
m-75 -24 c0 -5 -10 -16 -22 -25 l-23 -17 28 6 c29 6 39 -11 12 -21 -25 -10
-17 -27 9 -20 34 8 41 -8 10 -23 -36 -16 -40 -14 -54 19 -16 38 -25 33 -10 -4
15 -40 2 -51 -27 -24 l-25 23 7 -27 c12 -47 -12 -31 -29 19 -9 26 -16 48 -16
50 0 9 26 1 42 -14 19 -17 19 -16 13 7 -5 22 -1 27 32 42 45 19 53 21 53 9z
m-161 -107 c12 -46 7 -70 -8 -45 -6 10 -10 8 -15 -6 -7 -17 -8 -17 -22 1 -14
20 -14 20 -14 0 0 -23 -26 -28 -49 -11 -10 9 -16 7 -26 -7 -8 -10 -31 -20 -53
-23 -38 -5 -39 -4 -46 27 -9 45 -8 70 3 70 5 0 12 -18 16 -41 5 -30 11 -39 22
-35 8 3 19 6 24 6 5 0 9 13 9 29 0 35 9 61 21 61 5 0 18 -18 29 -40 32 -62 38
-48 14 33 -8 25 20 22 39 -5 l16 -23 0 26 c2 57 24 47 40 -17z m-611 -34 c-3
-28 -8 -53 -12 -57 -13 -13 -17 6 -10 56 9 67 28 68 22 1z m66 23 c11 -40 18
-93 11 -93 -4 0 -13 8 -20 17 -11 15 -15 15 -29 4 -25 -21 -28 -9 -10 42 16
48 38 61 48 30z m63 -13 l11 -23 4 22 c2 18 18 32 18 16 0 -3 0 -25 0 -50 0
-51 -13 -58 -34 -17 l-15 27 -1 -27 c0 -16 -4 -28 -10 -28 -5 0 -10 25 -10 56
0 59 14 69 37 24z m141 18 c7 -7 12 -26 12 -43 0 -37 -16 -55 -47 -55 -21 0
-23 4 -23 55 0 51 2 55 23 55 13 0 28 -5 35 -12z m86 -35 c18 -51 15 -63 -10
-42 -14 11 -18 11 -29 -4 -20 -27 -28 -20 -21 21 16 88 36 97 60 25z"/>
<path d="M3220 850 c0 -5 4 -10 9 -10 6 0 13 5 16 10 3 6 -1 10 -9 10 -9 0
-16 -4 -16 -10z"/>
<path d="M2210 640 c0 -5 7 -10 15 -10 8 0 15 5 15 10 0 6 -7 10 -15 10 -8 0
-15 -4 -15 -10z"/>
<path d="M2520 599 c0 -38 24 -35 28 4 2 19 -1 27 -12 27 -11 0 -16 -10 -16
-31z"/>
</g>
</svg>
